<svg width="29" height="28" xmlns="http://www.w3.org/2000/svg" xmlns:xlink="http://www.w3.org/1999/xlink" xml:space="preserve" overflow="hidden"><g transform="translate(-263 -177)"><path d="M28.7393 24.459 37.147 16.0512C38.37 14.8282 38.37 12.9938 37.147 11.7709L37.147 11.7709C36.6884 11.1594 35.9241 10.7008 35.1597 10.7008 34.3954 10.7008 33.6311 11.0065 33.0196 11.618L24.459 20.1786 16.0512 11.7709C14.8282 10.5479 12.8409 10.5479 11.7709 11.7709 11.1594 12.2295 10.7008 12.9938 10.7008 13.911 10.7008 14.8282 11.0065 15.4397 11.618 16.0512L20.0258 24.459 11.618 32.8667C11.1594 33.4782 10.7008 34.2425 10.7008 35.1597 10.7008 35.9241 11.0065 36.6884 11.618 37.2999 12.2295 37.9114 12.9938 38.2171 13.7582 38.2171 14.5225 38.2171 15.2868 37.9114 15.8983 37.2999L24.3061 28.8921 32.7138 37.2999C33.9368 38.5229 35.9241 38.5229 36.9942 37.2999 38.2171 36.077 38.2171 34.0897 36.9942 33.0196L28.7393 24.459Z" fill="#A9C445" transform="matrix(1 0 0 1.00694 253.087 166.375)"/></g></svg>